{
    "accessors": {
        "accessor_31": {
            "bufferView": "bufferView_43",
            "byteOffset": 0,
            "byteStride": 0,
            "componentType": 5123,
            "count": 40113,
            "type": "SCALAR"
        },
        "accessor_33": {
            "bufferView": "bufferView_44",
            "byteOffset": 0,
            "byteStride": 12,
            "componentType": 5126,
            "count": 40113,
            "max": [
                6.25925,
                3.00231,
                1.56485
            ],
            "min": [
                3.27862,
                -3.27856,
                0
            ],
            "type": "VEC3"
        },
        "accessor_35": {
            "bufferView": "bufferView_44",
            "byteOffset": 481356,
            "byteStride": 12,
            "componentType": 5126,
            "count": 40113,
            "max": [
                1,
                1,
                1
            ],
            "min": [
                -1,
                -1,
                -1
            ],
            "type": "VEC3"
        },
        "accessor_37": {
            "bufferView": "bufferView_44",
            "byteOffset": 962712,
            "byteStride": 8,
            "componentType": 5126,
            "count": 40113,
            "max": [
                1,
                1
            ],
            "min": [
                0,
                0
            ],
            "type": "VEC2"
        },
        "accessor_39": {
            "bufferView": "bufferView_44",
            "byteOffset": 1283616,
            "byteStride": 12,
            "componentType": 5126,
            "count": 40113,
            "max": [
                1,
                1,
                1
            ],
            "min": [
                -1,
                -1,
                -1
            ],
            "type": "VEC3"
        },
        "accessor_41": {
            "bufferView": "bufferView_44",
            "byteOffset": 1764972,
            "byteStride": 12,
            "componentType": 5126,
            "count": 40113,
            "max": [
                1,
                1,
                1
            ],
            "min": [
                -1,
                -1,
                -1
            ],
            "type": "VEC3"
        }
    },
    "animations": {},
    "asset": {
        "generator": "collada2gltf@GITDIR-NOTFOUND",
        "premultipliedAlpha": true,
        "profile": {
            "api": "WebGL",
            "version": "1.0.2"
        },
        "version": 1
    },
    "bufferViews": {
        "bufferView_43": {
            "buffer": "XQC",
            "byteLength": 80228,
            "byteOffset": 0,
            "target": 34963
        },
        "bufferView_44": {
            "buffer": "XQC",
            "byteLength": 2246328,
            "byteOffset": 80228,
            "target": 34962
        }
    },
    "buffers": {
        "XQC": {
            "byteLength": 2326556,
            "type": "arraybuffer",
            "uri": "data:application/octet-stream;base64,"
        }
    },
    "materials": {
        "Material__1577617516": {
            "name": "Material__1577617516",
            "technique": "technique0",
            "values": {
                "ambient": [
                    0,
                    0.6,
                    1,
                    1
                ],
                "diffuse": [
                    0,
                    0.6,
                    1,
                    1
                ],
                "emission": [
                    0,
                    0,
                    0,
                    1
                ],
                "shininess": 0,
                "specular": [
                    1,
                    1,
                    1,
                    1
                ],
                "transparency": 0.3
            }
        }
    },
    "meshes": {
        "geom-__Default_38": {
            "name": "__Default_38",
            "primitives": [
                {
                    "attributes": {
                        "NORMAL": "accessor_35",
                        "POSITION": "accessor_33",
                        "TEXBINORMAL": "accessor_41",
                        "TEXCOORD_0": "accessor_37",
                        "TEXTANGENT": "accessor_39"
                    },
                    "indices": "accessor_31",
                    "material": "Material__1577617516",
                    "mode": 4
                }
            ]
        }
    },
    "nodes": {
        "node-__Default_38": {
            "children": [],
            "matrix": [
                1,
                0,
                0,
                0,
                0,
                1,
                0,
                0,
                0,
                0,
                1,
                0,
                0,
                0,
                0,
                1
            ],
            "meshes": [
                "geom-__Default_38"
            ],
            "name": "__Default_38"
        },
        "node_0": {
            "children": [],
            "matrix": [
                1,
                0,
                0,
                0,
                0,
                1,
                0,
                0,
                0,
                0,
                1,
                0,
                0,
                0,
                0,
                1
            ],
            "name": "EnvironmentAmbientLight"
        },
        "node_2": {
            "children": [
                "node_0",
                "node-__Default_38"
            ],
            "matrix": [
                1,
                0,
                0,
                0,
                0,
                0,
                -1,
                0,
                0,
                1,
                0,
                0,
                0,
                0,
                0,
                1
            ],
            "name": "Y_UP_Transform"
        }
    },
    "programs": {
        "program_0": {
            "attributes": [
                "a_normal",
                "a_position"
            ],
            "fragmentShader": "XQC0FS",
            "vertexShader": "XQC0VS"
        }
    },
    "scene": "defaultScene",
    "scenes": {
        "defaultScene": {
            "nodes": [
                "node_2"
            ]
        }
    },
    "shaders": {
        "XQC0FS": {
            "type": 35632,
            "uri": "data:text/plain;base64,"
        },
        "XQC0VS": {
            "type": 35633,
            "uri": "data:text/plain;base64,"
        }
    },
    "skins": {},
    "techniques": {
        "technique0": {
            "attributes": {
                "a_normal": "normal",
                "a_position": "position"
            },
            "parameters": {
                "ambient": {
                    "type": 35666
                },
                "diffuse": {
                    "type": 35666
                },
                "emission": {
                    "type": 35666
                },
                "modelViewMatrix": {
                    "semantic": "MODELVIEW",
                    "type": 35676
                },
                "normal": {
                    "semantic": "NORMAL",
                    "type": 35665
                },
                "normalMatrix": {
                    "semantic": "MODELVIEWINVERSETRANSPOSE",
                    "type": 35675
                },
                "position": {
                    "semantic": "POSITION",
                    "type": 35665
                },
                "projectionMatrix": {
                    "semantic": "PROJECTION",
                    "type": 35676
                },
                "shininess": {
                    "type": 5126
                },
                "specular": {
                    "type": 35666
                },
                "transparency": {
                    "type": 5126
                }
            },
            "program": "program_0",
            "states": {
                "enable": [
                    2929,
                    3042
                ],
                "functions": {
                    "blendEquationSeparate": [
                        32774,
                        32774
                    ],
                    "blendFuncSeparate": [
                        1,
                        771,
                        1,
                        771
                    ],
                    "depthMask": false
                }
            },
            "uniforms": {
                "u_ambient": "ambient",
                "u_diffuse": "diffuse",
                "u_emission": "emission",
                "u_modelViewMatrix": "modelViewMatrix",
                "u_normalMatrix": "normalMatrix",
                "u_projectionMatrix": "projectionMatrix",
                "u_shininess": "shininess",
                "u_specular": "specular",
                "u_transparency": "transparency"
            }
        }
    }
}